<svg width="20" height="20" viewBox="0 0 20 20" fill="none" xmlns="http://www.w3.org/2000/svg">
<g opacity="0.7">
<path d="M12.3047 3.55469H7.61719C7.29359 3.55469 7.03125 3.81703 7.03125 4.14062C7.03125 4.46422 7.29359 4.72656 7.61719 4.72656H12.3047C12.6283 4.72656 12.8906 4.46422 12.8906 4.14062C12.8906 3.81703 12.6283 3.55469 12.3047 3.55469Z" fill="white"/>
<path d="M12.3047 5.89844H7.61719C7.29359 5.89844 7.03125 6.16078 7.03125 6.48438C7.03125 6.80797 7.29359 7.07031 7.61719 7.07031H12.3047C12.6283 7.07031 12.8906 6.80797 12.8906 6.48438C12.8906 6.16078 12.6283 5.89844 12.3047 5.89844Z" fill="white"/>
<path d="M12.3047 8.24219H2.92969C2.60609 8.24219 2.34375 8.50453 2.34375 8.82812C2.34375 9.15172 2.60609 9.41406 2.92969 9.41406H12.3047C12.6283 9.41406 12.8906 9.15172 12.8906 8.82812C12.8906 8.50453 12.6283 8.24219 12.3047 8.24219Z" fill="white"/>
<path d="M10.1805 10.5859H2.92969C2.60609 10.5859 2.34375 10.8483 2.34375 11.1719C2.34375 11.4955 2.60609 11.7578 2.92969 11.7578H10.1805C10.5041 11.7578 10.7665 11.4955 10.7665 11.1719C10.7665 10.8483 10.5041 10.5859 10.1805 10.5859Z" fill="white"/>
<path d="M15.2734 10.5859V1.75781C15.2734 0.78625 14.4494 0 13.4766 0H5.27336C5.1248 0 4.97199 0.05875 4.85742 0.173359L0.169922 4.89992C0.0622266 5.00848 0 5.15945 0 5.3125V18.2422C0 19.2114 0.788555 20 1.75781 20C2.99398 20 3.40445 20 3.4027 20C5.19969 20 8.7357 20 15.2734 20C17.8607 20 20 17.8698 20 15.2734C20 12.6888 17.8797 10.5859 15.2734 10.5859ZM4.6875 2.00887V4.72656H1.99227L4.6875 2.00887ZM1.75781 18.8281C1.43473 18.8281 1.17188 18.5653 1.17188 18.2422V5.89844H5.27344C5.59703 5.89844 5.85938 5.63609 5.85938 5.3125V1.17188H13.4766C13.8095 1.17188 14.1016 1.44566 14.1016 1.75781V10.7318C12.8579 11.0476 11.8103 11.8539 11.1814 12.9297H2.92969C2.60609 12.9297 2.34375 13.192 2.34375 13.5156C2.34375 13.8392 2.60609 14.1016 2.92969 14.1016H10.6964C10.5988 14.4763 10.5469 14.8689 10.5469 15.2734H2.92969C2.60609 15.2734 2.34375 15.5358 2.34375 15.8594C2.34375 16.183 2.60609 16.4453 2.92969 16.4453H10.6955C10.9323 17.3616 11.4444 18.1875 12.1753 18.8281H1.75781ZM15.2734 18.8281C13.3466 18.8281 11.7188 17.2003 11.7188 15.2734C11.7188 13.3349 13.3134 11.7578 15.2734 11.7578C17.2335 11.7578 18.8281 13.3349 18.8281 15.2734C18.8281 17.2003 17.2003 18.8281 15.2734 18.8281Z" fill="white"/>
<path d="M17.488 14.2765C17.2612 14.0458 16.8901 14.0427 16.6594 14.2696L14.6842 16.2125L13.884 15.4382C13.6515 15.2131 13.2805 15.2192 13.0555 15.4518C12.8305 15.6843 12.8366 16.0553 13.0691 16.2803L14.28 17.4522C14.5084 17.6732 14.8716 17.6719 15.0984 17.4488L17.4812 15.1051C17.7119 14.8782 17.7149 14.5072 17.488 14.2765Z" fill="white"/>
</g>
</svg>
