<svg width="39" height="25" viewBox="0 0 39 25" fill="none" xmlns="http://www.w3.org/2000/svg">
<path d="M31.5392 16.727L26.273 11.4608C25.909 11.0968 25.909 10.5082 26.273 10.1481L27.1481 9.27299C27.5121 8.909 28.1007 8.909 28.4608 9.27299L32.1936 13.0058L35.9264 9.27299C36.2904 8.909 36.879 8.909 37.2391 9.27299L38.1142 10.1481C38.4782 10.5121 38.4782 11.1007 38.1142 11.4608L32.848 16.727C32.4918 17.091 31.9032 17.091 31.5392 16.727V16.727Z" fill="#757575"/>
<g clip-path="url(#clip0)">
<path d="M11.1884 0C7.61694 0 4.7002 2.92163 4.7002 6.48818C4.7002 10.0547 7.61694 12.9812 11.1884 12.9812C14.7598 12.9812 17.6765 10.0596 17.6765 6.49306C17.6765 2.92652 14.7598 0 11.1884 0Z" fill="#757575"/>
<path d="M22.3278 18.1699C22.1568 17.7448 21.932 17.3491 21.678 16.9778C20.3735 15.0528 18.3606 13.7728 16.0936 13.465C15.8103 13.4356 15.4976 13.4943 15.2729 13.6653C14.0807 14.5447 12.6639 14.9991 11.1933 14.9991C9.72272 14.9991 8.30099 14.5447 7.11377 13.6653C6.88902 13.4943 6.57634 13.4112 6.29297 13.465C4.02602 13.7776 1.9838 15.0528 0.708638 16.9778C0.454583 17.3442 0.224956 17.7692 0.0588428 18.1699C-0.0242138 18.3409 0.000214623 18.5363 0.0881569 18.7073C0.312898 19.103 0.596268 19.4988 0.855209 19.8408C1.25095 20.3782 1.676 20.8619 2.15969 21.3162C2.55543 21.712 3.00979 22.0833 3.46416 22.4497C5.7018 24.1206 8.39381 25 11.1738 25C13.9537 25 16.6457 24.1206 18.8834 22.4497C19.3377 22.1077 19.7921 21.712 20.1878 21.3162C20.6422 20.8619 21.0966 20.3831 21.4923 19.8408C21.7757 19.4743 22.0298 19.103 22.2594 18.7073C22.3864 18.5363 22.4157 18.336 22.3278 18.1699Z" fill="#757575"/>
</g>
<defs>
<clipPath id="clip0">
<rect width="22.3764" height="25" fill="white"/>
</clipPath>
</defs>
</svg>
