<svg width="118" height="30" viewBox="0 0 118 30" fill="none" xmlns="http://www.w3.org/2000/svg">
<g filter="url(#filter0_d)">
<path d="M40.5399 10.0111V12.0061H37.4049V20.4061H35.0649V12.0061H31.9299V10.0111H40.5399ZM43.7808 18.8461C44.0008 18.8461 44.2108 18.8411 44.4108 18.8311C44.6108 18.8211 44.7708 18.8061 44.8908 18.7861V17.0911C44.8008 17.0711 44.6658 17.0511 44.4858 17.0311C44.3058 17.0111 44.1408 17.0011 43.9908 17.0011C43.7808 17.0011 43.5808 17.0161 43.3908 17.0461C43.2108 17.0661 43.0508 17.1111 42.9108 17.1811C42.7708 17.2511 42.6608 17.3461 42.5808 17.4661C42.5008 17.5861 42.4608 17.7361 42.4608 17.9161C42.4608 18.2661 42.5758 18.5111 42.8058 18.6511C43.0458 18.7811 43.3708 18.8461 43.7808 18.8461ZM43.6008 12.3061C44.2608 12.3061 44.8108 12.3811 45.2508 12.5311C45.6908 12.6811 46.0408 12.8961 46.3008 13.1761C46.5708 13.4561 46.7608 13.7961 46.8708 14.1961C46.9808 14.5961 47.0358 15.0411 47.0358 15.5311V20.1811C46.7158 20.2511 46.2708 20.3311 45.7008 20.4211C45.1308 20.5211 44.4408 20.5711 43.6308 20.5711C43.1208 20.5711 42.6558 20.5261 42.2358 20.4361C41.8258 20.3461 41.4708 20.2011 41.1708 20.0011C40.8708 19.7911 40.6408 19.5211 40.4808 19.1911C40.3208 18.8611 40.2408 18.4561 40.2408 17.9761C40.2408 17.5161 40.3308 17.1261 40.5108 16.8061C40.7008 16.4861 40.9508 16.2311 41.2608 16.0411C41.5708 15.8511 41.9258 15.7161 42.3258 15.6361C42.7258 15.5461 43.1408 15.5011 43.5708 15.5011C43.8608 15.5011 44.1158 15.5161 44.3358 15.5461C44.5658 15.5661 44.7508 15.5961 44.8908 15.6361V15.4261C44.8908 15.0461 44.7758 14.7411 44.5458 14.5111C44.3158 14.2811 43.9158 14.1661 43.3458 14.1661C42.9658 14.1661 42.5908 14.1961 42.2208 14.2561C41.8508 14.3061 41.5308 14.3811 41.2608 14.4811L40.9758 12.6811C41.1058 12.6411 41.2658 12.6011 41.4558 12.5611C41.6558 12.5111 41.8708 12.4711 42.1008 12.4411C42.3308 12.4011 42.5708 12.3711 42.8208 12.3511C43.0808 12.3211 43.3408 12.3061 43.6008 12.3061ZM52.2068 20.5561C51.5568 20.5461 51.0268 20.4761 50.6168 20.3461C50.2168 20.2161 49.8968 20.0361 49.6568 19.8061C49.4268 19.5661 49.2668 19.2811 49.1768 18.9511C49.0968 18.6111 49.0568 18.2311 49.0568 17.8111V9.12613L51.2918 8.76613V17.3611C51.2918 17.5611 51.3068 17.7411 51.3368 17.9011C51.3668 18.0611 51.4218 18.1961 51.5018 18.3061C51.5918 18.4161 51.7168 18.5061 51.8768 18.5761C52.0368 18.6461 52.2518 18.6911 52.5218 18.7111L52.2068 20.5561ZM53.4279 16.5211C53.4279 15.8211 53.5329 15.2111 53.7429 14.6911C53.9629 14.1611 54.2479 13.7211 54.5979 13.3711C54.9479 13.0211 55.3479 12.7561 55.7979 12.5761C56.2579 12.3961 56.7279 12.3061 57.2079 12.3061C58.3279 12.3061 59.2129 12.6511 59.8629 13.3411C60.5129 14.0211 60.8379 15.0261 60.8379 16.3561C60.8379 16.4861 60.8329 16.6311 60.8229 16.7911C60.8129 16.9411 60.8029 17.0761 60.7929 17.1961H55.7229C55.7729 17.6561 55.9879 18.0211 56.3679 18.2911C56.7479 18.5611 57.2579 18.6961 57.8979 18.6961C58.3079 18.6961 58.7079 18.6611 59.0979 18.5911C59.4979 18.5111 59.8229 18.4161 60.0729 18.3061L60.3729 20.1211C60.2529 20.1811 60.0929 20.2411 59.8929 20.3011C59.6929 20.3611 59.4679 20.4111 59.2179 20.4511C58.9779 20.5011 58.7179 20.5411 58.4379 20.5711C58.1579 20.6011 57.8779 20.6161 57.5979 20.6161C56.8879 20.6161 56.2679 20.5111 55.7379 20.3011C55.2179 20.0911 54.7829 19.8061 54.4329 19.4461C54.0929 19.0761 53.8379 18.6411 53.6679 18.1411C53.5079 17.6411 53.4279 17.1011 53.4279 16.5211ZM58.6779 15.6661C58.6679 15.4761 58.6329 15.2911 58.5729 15.1111C58.5229 14.9311 58.4379 14.7711 58.3179 14.6311C58.2079 14.4911 58.0629 14.3761 57.8829 14.2861C57.7129 14.1961 57.4979 14.1511 57.2379 14.1511C56.9879 14.1511 56.7729 14.1961 56.5929 14.2861C56.4129 14.3661 56.2629 14.4761 56.1429 14.6161C56.0229 14.7561 55.9279 14.9211 55.8579 15.1111C55.7979 15.2911 55.7529 15.4761 55.7229 15.6661H58.6779ZM62.5627 12.7861C62.9427 12.6761 63.4327 12.5761 64.0327 12.4861C64.6327 12.3861 65.2627 12.3361 65.9227 12.3361C66.5927 12.3361 67.1477 12.4261 67.5877 12.6061C68.0377 12.7761 68.3927 13.0211 68.6527 13.3411C68.9127 13.6611 69.0977 14.0411 69.2077 14.4811C69.3177 14.9211 69.3727 15.4111 69.3727 15.9511V20.4061H67.1377V16.2211C67.1377 15.5011 67.0427 14.9911 66.8527 14.6911C66.6627 14.3911 66.3077 14.2411 65.7877 14.2411C65.6277 14.2411 65.4577 14.2511 65.2777 14.2711C65.0977 14.2811 64.9377 14.2961 64.7977 14.3161V20.4061H62.5627V12.7861ZM71.3207 10.5511L73.5557 10.1911V12.5161H76.2407V14.3761H73.5557V17.1511C73.5557 17.6211 73.6357 17.9961 73.7957 18.2761C73.9657 18.5561 74.3007 18.6961 74.8007 18.6961C75.0407 18.6961 75.2857 18.6761 75.5357 18.6361C75.7957 18.5861 76.0307 18.5211 76.2407 18.4411L76.5557 20.1811C76.2857 20.2911 75.9857 20.3861 75.6557 20.4661C75.3257 20.5461 74.9207 20.5861 74.4407 20.5861C73.8307 20.5861 73.3257 20.5061 72.9257 20.3461C72.5257 20.1761 72.2057 19.9461 71.9657 19.6561C71.7257 19.3561 71.5557 18.9961 71.4557 18.5761C71.3657 18.1561 71.3207 17.6911 71.3207 17.1811V10.5511Z" fill="black"/>
<path d="M87.4993 16.9111C87.4993 17.4211 87.4393 17.9011 87.3193 18.3511C87.2093 18.8011 87.0093 19.1961 86.7193 19.5361C86.4393 19.8661 86.0543 20.1311 85.5643 20.3311C85.0843 20.5211 84.4743 20.6161 83.7343 20.6161C83.0543 20.6161 82.4693 20.5361 81.9793 20.3761C81.4893 20.2061 81.0843 20.0111 80.7643 19.7911L81.5443 17.9761C81.8343 18.1461 82.1443 18.2961 82.4743 18.4261C82.8043 18.5561 83.1643 18.6211 83.5543 18.6211C84.1243 18.6211 84.5343 18.4811 84.7843 18.2011C85.0343 17.9211 85.1593 17.4511 85.1593 16.7911V10.0111H87.4993V16.9111ZM96.9837 16.4461C96.9837 17.0661 96.8937 17.6361 96.7137 18.1561C96.5337 18.6661 96.2737 19.1061 95.9337 19.4761C95.5937 19.8361 95.1837 20.1161 94.7037 20.3161C94.2337 20.5161 93.7037 20.6161 93.1137 20.6161C92.5337 20.6161 92.0037 20.5161 91.5237 20.3161C91.0537 20.1161 90.6487 19.8361 90.3087 19.4761C89.9687 19.1061 89.7037 18.6661 89.5137 18.1561C89.3237 17.6361 89.2287 17.0661 89.2287 16.4461C89.2287 15.8261 89.3237 15.2611 89.5137 14.7511C89.7137 14.2411 89.9837 13.8061 90.3237 13.4461C90.6737 13.0861 91.0837 12.8061 91.5537 12.6061C92.0337 12.4061 92.5537 12.3061 93.1137 12.3061C93.6837 12.3061 94.2037 12.4061 94.6737 12.6061C95.1537 12.8061 95.5637 13.0861 95.9037 13.4461C96.2437 13.8061 96.5087 14.2411 96.6987 14.7511C96.8887 15.2611 96.9837 15.8261 96.9837 16.4461ZM94.7037 16.4461C94.7037 15.7561 94.5637 15.2161 94.2837 14.8261C94.0137 14.4261 93.6237 14.2261 93.1137 14.2261C92.6037 14.2261 92.2087 14.4261 91.9287 14.8261C91.6487 15.2161 91.5087 15.7561 91.5087 16.4461C91.5087 17.1361 91.6487 17.6861 91.9287 18.0961C92.2087 18.4961 92.6037 18.6961 93.1137 18.6961C93.6237 18.6961 94.0137 18.4961 94.2837 18.0961C94.5637 17.6861 94.7037 17.1361 94.7037 16.4461ZM103.77 16.4011C103.77 14.9611 103.24 14.2411 102.18 14.2411C101.95 14.2411 101.72 14.2711 101.49 14.3311C101.27 14.3911 101.09 14.4661 100.95 14.5561V18.6211C101.06 18.6411 101.2 18.6611 101.37 18.6811C101.54 18.6911 101.725 18.6961 101.925 18.6961C102.535 18.6961 102.995 18.4861 103.305 18.0661C103.615 17.6461 103.77 17.0911 103.77 16.4011ZM106.05 16.4611C106.05 17.0911 105.955 17.6611 105.765 18.1711C105.585 18.6811 105.32 19.1161 104.97 19.4761C104.62 19.8361 104.19 20.1161 103.68 20.3161C103.17 20.5061 102.59 20.6011 101.94 20.6011C101.67 20.6011 101.385 20.5861 101.085 20.5561C100.795 20.5361 100.505 20.5061 100.215 20.4661C99.935 20.4261 99.665 20.3811 99.405 20.3311C99.145 20.2711 98.915 20.2111 98.715 20.1511V9.12613L100.95 8.76613V12.6961C101.2 12.5861 101.46 12.5011 101.73 12.4411C102 12.3811 102.29 12.3511 102.6 12.3511C103.16 12.3511 103.655 12.4511 104.085 12.6511C104.515 12.8411 104.875 13.1161 105.165 13.4761C105.455 13.8361 105.675 14.2711 105.825 14.7811C105.975 15.2811 106.05 15.8411 106.05 16.4611ZM110.033 18.8011C110.443 18.8011 110.733 18.7611 110.903 18.6811C111.073 18.6011 111.158 18.4461 111.158 18.2161C111.158 18.0361 111.048 17.8811 110.828 17.7511C110.608 17.6111 110.273 17.4561 109.823 17.2861C109.473 17.1561 109.153 17.0211 108.863 16.8811C108.583 16.7411 108.343 16.5761 108.143 16.3861C107.943 16.1861 107.788 15.9511 107.678 15.6811C107.568 15.4111 107.513 15.0861 107.513 14.7061C107.513 13.9661 107.788 13.3811 108.338 12.9511C108.888 12.5211 109.643 12.3061 110.603 12.3061C111.083 12.3061 111.543 12.3511 111.983 12.4411C112.423 12.5211 112.773 12.6111 113.033 12.7111L112.643 14.4511C112.383 14.3611 112.098 14.2811 111.788 14.2111C111.488 14.1411 111.148 14.1061 110.768 14.1061C110.068 14.1061 109.718 14.3011 109.718 14.6911C109.718 14.7811 109.733 14.8611 109.763 14.9311C109.793 15.0011 109.853 15.0711 109.943 15.1411C110.033 15.2011 110.153 15.2711 110.303 15.3511C110.463 15.4211 110.663 15.5011 110.903 15.5911C111.393 15.7711 111.798 15.9511 112.118 16.1311C112.438 16.3011 112.688 16.4911 112.868 16.7011C113.058 16.9011 113.188 17.1261 113.258 17.3761C113.338 17.6261 113.378 17.9161 113.378 18.2461C113.378 19.0261 113.083 19.6161 112.493 20.0161C111.913 20.4161 111.088 20.6161 110.018 20.6161C109.318 20.6161 108.733 20.5561 108.263 20.4361C107.803 20.3161 107.483 20.2161 107.303 20.1361L107.678 18.3211C108.058 18.4711 108.448 18.5911 108.848 18.6811C109.248 18.7611 109.643 18.8011 110.033 18.8011Z" fill="#F6F6F6"/>
</g>
<path d="M18.6183 25.1778C18.138 26.719 17.3774 27.8599 16.4567 28.6405C15.7361 29.2609 14.9355 29.6412 14.0949 29.8414C13.2942 30.0415 12.4736 30.0415 11.693 29.9014C11.1926 29.8013 10.7122 29.6412 10.2719 29.4211C10.9724 29.7213 11.5729 29.4211 11.9732 29.1208C12.0933 29.0207 12.2134 28.9207 12.3135 28.8006C12.4536 28.6405 12.5537 28.4803 12.6537 28.3002C13.1942 27.2794 13.5144 26.2987 13.6145 25.3379C13.8947 22.6959 12.5737 20.274 9.47129 18.2524C8.79076 17.8121 8.05019 17.3918 7.20954 16.9915C3.68683 15.2702 -0.73658 12.528 0.104068 8.26475C0.344253 7.06382 0.804608 6.20316 1.38505 5.56267C1.58521 5.3425 1.78536 5.14234 2.00553 4.98222C2.18567 4.84211 2.3458 4.72202 2.52593 4.62194C3.48667 4.04149 4.62755 3.78129 5.74842 3.88137C5.74842 3.88137 5.74842 3.88137 5.76843 3.88137C5.80846 3.88137 5.8485 3.88137 5.86851 3.88137C6.06867 3.90139 6.28883 3.9214 6.48899 3.96143C8.87082 4.30169 10.8724 5.24242 12.5336 6.54342C14.0148 7.6843 15.2157 9.16544 16.1765 10.7667C17.2573 12.5881 18.0179 14.5896 18.4982 16.5712C19.2788 19.8737 19.2588 23.0762 18.6183 25.1778Z" fill="url(#paint0_linear)"/>
<path d="M12.7934 27.9999C12.7534 28.08 12.7134 28.1801 12.6533 28.2601C12.4732 28.5804 12.253 28.8606 11.9528 29.1008C11.5525 29.401 10.952 29.7013 10.2515 29.401C9.33076 28.9407 8.55016 28.2001 8.10982 27.2594C7.16909 25.2979 6.90889 22.7759 8.8704 19.2132C9.05054 18.8929 9.2507 18.5527 9.47087 18.2124C10.3115 18.7528 11.0321 19.3333 11.6125 19.9537C13.8943 22.3156 14.2345 25.0777 12.7934 27.9999Z" fill="url(#paint1_linear)"/>
<path d="M27.5245 10.3864C27.4845 10.6666 27.4044 10.9868 27.2043 11.2871C26.5238 12.4079 22.3205 13.5488 19.2582 15.9106C18.998 16.1108 18.7177 16.3309 18.4776 16.5711C18.1973 15.3502 17.797 14.1293 17.2766 12.9483C17.1565 12.6681 17.0364 12.3879 16.8963 12.1077C16.6762 11.6473 16.436 11.187 16.1758 10.7466C16.436 10.5265 16.7162 10.3263 16.9764 10.1462C20.9995 7.20391 24.0218 7.34402 25.503 7.7043C26.3836 7.92447 27.1242 8.56496 27.4044 9.42563C27.5045 9.72586 27.5445 10.0461 27.5245 10.3864Z" fill="url(#paint2_linear)"/>
<path d="M19.7391 5.04226C18.8384 6.68352 16.7768 7.28398 15.1356 6.38329C15.1155 6.38329 15.0955 6.36327 15.0755 6.36327C14.0347 5.76281 13.4142 4.68198 13.3742 3.56111C13.3542 2.96065 13.4743 2.36019 13.7945 1.77974C14.6952 0.138476 16.7568 -0.461987 18.3981 0.438708C18.6583 0.578816 18.8985 0.758954 19.1186 0.979124C19.639 1.47951 19.9793 2.12 20.0994 2.82054C20.2395 3.56111 20.1194 4.34172 19.7391 5.04226Z" fill="url(#paint3_linear)"/>
<path opacity="0.2" d="M12.6535 28.2801C12.4734 28.6004 12.2532 28.8806 11.953 29.1208C11.5527 29.421 10.9522 29.7213 10.2517 29.421C10.2517 29.421 12.7936 29.8414 12.8937 25.8983C12.9738 23.1162 10.9522 20.1139 8.85059 19.2332C9.03072 18.9129 9.23088 18.5727 9.45105 18.2324C13.6943 20.9745 14.6551 24.4972 12.6535 28.2801Z" fill="#0F3013"/>
<path d="M27.205 11.2871C26.5245 12.4079 22.3212 13.5488 19.2589 15.9106C18.9987 16.1108 18.7185 16.331 18.4783 16.5712C18.1981 15.3502 17.7977 14.1293 17.2773 12.9484C20.1596 10.3864 24.9633 8.70509 26.0841 8.92526C27.7054 9.26552 27.205 11.2871 27.205 11.2871Z" fill="url(#paint4_linear)"/>
<path opacity="0.2" d="M19.2586 15.9106C18.9984 16.1108 18.7182 16.3309 18.478 16.5711C17.9977 14.5896 17.2371 12.5881 16.1562 10.7667C16.4165 10.5465 16.6967 10.3463 16.9569 10.1662C16.9769 10.1662 18.5181 12.7682 19.2586 15.9106Z" fill="#0F3013"/>
<path d="M12.314 28.7806C12.1139 29.1609 11.9137 29.5412 11.6936 29.9014C11.1932 29.8014 10.7128 29.6412 10.2725 29.4211C10.973 29.7213 11.5735 29.4211 11.9738 29.1208C12.0939 29.0007 12.1939 28.9007 12.314 28.7806Z" fill="url(#paint5_linear)"/>
<path opacity="0.15" d="M13.6145 25.2978C13.8947 22.6558 12.5737 20.2339 9.47129 18.2124C8.79076 17.772 8.05019 17.3517 7.20954 16.9514C3.68683 15.2701 -0.73658 12.528 0.104068 8.2647C0.424314 6.66347 1.16489 5.64268 2.00553 4.98217C9.01093 7.02374 14.1349 13.4887 14.1349 21.1546C14.1349 22.5757 13.9547 23.9768 13.6145 25.2978Z" fill="#B5B5B5"/>
<path opacity="0.11" d="M19.7392 5.04225C18.8385 6.68351 16.7769 7.28398 15.1357 6.38328C15.1157 6.38328 15.0956 6.36327 15.0756 6.36327C14.8755 5.90291 14.7754 5.38251 14.7754 4.8421C14.7754 4.80206 14.7754 4.78205 14.7754 4.74202C14.8354 2.6404 16.5568 0.939087 18.6584 0.939087C18.8185 0.939087 18.9586 0.939087 19.1187 0.959102C19.6391 1.45949 19.9794 2.09998 20.0995 2.80052C20.2396 3.56111 20.1195 4.34171 19.7392 5.04225Z" fill="#F6F6F6"/>
<path opacity="0.06" d="M20.0994 2.82054C19.4989 4.2016 18.1178 5.16234 16.5366 5.16234C15.8961 5.16234 15.3157 5.00222 14.7753 4.74202C14.2148 4.4618 13.7345 4.04148 13.3742 3.5411C13.3542 2.94063 13.4743 2.34017 13.7945 1.75972C14.6952 0.118457 16.7568 -0.482006 18.3981 0.418688C18.6583 0.558796 18.8985 0.738935 19.1186 0.959105C19.639 1.47951 19.9793 2.12 20.0994 2.82054Z" fill="#F6F6F6"/>
<path opacity="0.88" d="M13.9341 3.80132C13.9341 3.94143 13.9341 4.06152 13.9541 4.20163C14.0542 5.02226 14.4145 5.76283 14.9749 6.30325C13.9742 5.70279 13.3937 4.64197 13.3537 3.54112C13.3337 2.94066 13.4538 2.34019 13.774 1.75975C14.6547 0.158512 16.6162 -0.441951 18.2374 0.358666C17.9772 0.29862 17.717 0.258589 17.4368 0.258589C15.5154 0.278605 13.9341 1.85982 13.9341 3.80132Z" fill="#B5B5B5"/>
<path opacity="0.5" d="M18.6183 25.1778C18.138 26.719 17.3774 27.8599 16.4567 28.6405C15.7361 29.2609 14.9355 29.6412 14.0949 29.8414C13.2942 30.0415 12.4736 30.0415 11.693 29.9014C11.1926 29.8013 10.7122 29.6412 10.2719 29.4211C10.9724 29.7213 11.5729 29.4211 11.9732 29.1208C12.0933 29.0207 12.2134 28.9207 12.3135 28.8006C12.4536 28.6405 12.5537 28.4803 12.6537 28.3002C13.1942 27.2794 13.5144 26.2987 13.6145 25.3379C13.8947 22.6959 12.5737 20.274 9.47129 18.2524C8.79076 17.8121 8.05019 17.3918 7.20954 16.9915C3.68683 15.2702 -0.73658 12.528 0.104068 8.26475C0.344253 7.06382 0.804608 6.20316 1.38505 5.56267C1.58521 5.3425 1.78536 5.14234 2.00553 4.98222C2.18567 4.84211 2.3458 4.72202 2.52593 4.62194C3.48667 4.04149 4.62755 3.78129 5.74842 3.88137C5.74842 3.88137 5.74842 3.88137 5.76843 3.88137C5.80846 3.88137 5.8485 3.88137 5.86851 3.88137C6.06867 3.90139 6.28883 3.9214 6.48899 3.96143C8.87082 4.30169 10.8724 5.24242 12.5336 6.54342C14.0148 7.6843 15.2157 9.16544 16.1765 10.7667C17.2573 12.5881 18.0179 14.5896 18.4982 16.5712C19.2788 19.8737 19.2588 23.0762 18.6183 25.1778Z" fill="#F6F6F6"/>
<defs>
<filter id="filter0_d" x="27.9297" y="6.76613" width="89.4479" height="19.85" filterUnits="userSpaceOnUse" color-interpolation-filters="sRGB">
<feFlood flood-opacity="0" result="BackgroundImageFix"/>
<feColorMatrix in="SourceAlpha" type="matrix" values="0 0 0 0 0 0 0 0 0 0 0 0 0 0 0 0 0 0 127 0"/>
<feOffset dy="2"/>
<feGaussianBlur stdDeviation="2"/>
<feColorMatrix type="matrix" values="0 0 0 0 0 0 0 0 0 0 0 0 0 0 0 0 0 0 0.25 0"/>
<feBlend mode="normal" in2="BackgroundImageFix" result="effect1_dropShadow"/>
<feBlend mode="normal" in="SourceGraphic" in2="effect1_dropShadow" result="shape"/>
</filter>
<linearGradient id="paint0_linear" x1="0.898" y1="4.53445" x2="21.6675" y2="30.5406" gradientUnits="userSpaceOnUse">
<stop offset="0.1426" stop-color="#F6F6F6"/>
<stop offset="0.5579" stop-color="#757575"/>
</linearGradient>
<linearGradient id="paint1_linear" x1="11.9582" y1="17.3481" x2="8.98533" y2="31.841" gradientUnits="userSpaceOnUse">
<stop stop-color="#757575"/>
<stop offset="0.1667" stop-color="#8F8F8F"/>
<stop offset="0.5547" stop-color="#C6C6C6"/>
<stop offset="0.844" stop-color="#E9E9E9"/>
<stop offset="1" stop-color="#F6F6F6"/>
</linearGradient>
<linearGradient id="paint2_linear" x1="8.69005" y1="23.4268" x2="24.0655" y2="8.79456" gradientUnits="userSpaceOnUse">
<stop stop-color="#757575"/>
<stop offset="0.2518" stop-color="#898989"/>
<stop offset="0.7303" stop-color="#A9A9A9"/>
<stop offset="0.9946" stop-color="#B5B5B5"/>
</linearGradient>
<linearGradient id="paint3_linear" x1="13.3672" y1="3.41002" x2="20.1504" y2="3.41002" gradientUnits="userSpaceOnUse">
<stop stop-color="#757575"/>
<stop offset="0.2518" stop-color="#898989"/>
<stop offset="0.7303" stop-color="#A9A9A9"/>
<stop offset="0.9946" stop-color="#B5B5B5"/>
</linearGradient>
<linearGradient id="paint4_linear" x1="11.295" y1="19.3587" x2="32.5697" y2="5.29935" gradientUnits="userSpaceOnUse">
<stop stop-color="#757575"/>
<stop offset="0.2518" stop-color="#898989"/>
<stop offset="0.7303" stop-color="#A9A9A9"/>
<stop offset="0.9946" stop-color="#B5B5B5"/>
</linearGradient>
<linearGradient id="paint5_linear" x1="11.7037" y1="29.7189" x2="10.96" y2="28.6133" gradientUnits="userSpaceOnUse">
<stop offset="0.2729" stop-color="#757575"/>
<stop offset="0.7803" stop-color="#B5B5B5"/>
</linearGradient>
</defs>
</svg>
