<svg width="28" height="25" viewBox="0 0 28 25" fill="none" xmlns="http://www.w3.org/2000/svg">
<path d="M26.4203 9.65918H19.0339C18.5635 9.65918 18.1816 10.041 18.1816 10.5115C18.1816 10.9819 18.5635 11.3637 19.0339 11.3637H26.4203C26.8907 11.3637 27.2725 10.9819 27.2725 10.5115C27.2725 10.041 26.8907 9.65918 26.4203 9.65918Z" fill="white"/>
<path d="M26.4203 13.0681H19.0339C18.5635 13.0681 18.1816 13.4499 18.1816 13.9204C18.1816 14.3908 18.5635 14.7727 19.0339 14.7727H26.4203C26.8907 14.7727 27.2725 14.3908 27.2725 13.9204C27.2725 13.4499 26.8907 13.0681 26.4203 13.0681Z" fill="white"/>
<path d="M26.4203 16.4772H19.0339C18.5635 16.4772 18.1816 16.859 18.1816 17.3294C18.1816 17.7999 18.5635 18.1817 19.0339 18.1817H26.4203C26.8907 18.1817 27.2725 17.7999 27.2725 17.3294C27.2725 16.859 26.8907 16.4772 26.4203 16.4772Z" fill="white"/>
<path d="M26.4203 19.8864H19.0339C18.5635 19.8864 18.1816 20.2682 18.1816 20.7386C18.1816 21.2091 18.5635 21.5909 19.0339 21.5909H26.4203C26.8907 21.5909 27.2725 21.2091 27.2725 20.7386C27.2725 20.2682 26.8907 19.8864 26.4203 19.8864Z" fill="white"/>
<path d="M26.4203 23.2954H19.0339C18.5635 23.2954 18.1816 23.6772 18.1816 24.1477C18.1816 24.6181 18.5635 25 19.0339 25H26.4203C26.8907 25 27.2725 24.6181 27.2725 24.1477C27.2725 23.6772 26.8907 23.2954 26.4203 23.2954Z" fill="white"/>
<path d="M13.9205 9.65918H1.98865C0.897745 9.65918 0 10.5569 0 11.6478V23.0115C0 24.1024 0.897745 25.0001 1.98865 25.0001H13.9205C15.0114 25.0001 15.9091 24.1024 15.9091 23.0115V11.6478C15.9091 10.5569 15.0114 9.65918 13.9205 9.65918ZM7.95456 13.6365C8.89772 13.6365 9.6591 14.3979 9.6591 15.341C9.6591 16.2842 8.89772 17.0456 7.95456 17.0456C7.0114 17.0456 6.25001 16.2842 6.25001 15.341C6.25001 14.3979 7.01134 13.6365 7.95456 13.6365ZM11.3636 20.7387C11.3636 21.2046 10.9773 21.591 10.5114 21.591H5.39774C4.93185 21.591 4.54547 21.2046 4.54547 20.7387V20.3182C4.54547 19.1364 5.61367 18.1819 6.93183 18.1819H8.97728C10.2954 18.1819 11.3636 19.1364 11.3636 20.3182V20.7387Z" fill="white"/>
<path d="M25.2841 0H1.98865C0.892054 0 0 0.892054 0 1.9886V4.82952C0 5.92612 0.892054 6.81818 1.98865 6.81818H25.2841C26.3807 6.81818 27.2728 5.92612 27.2728 4.82952V1.9886C27.2727 0.892054 26.3807 0 25.2841 0Z" fill="white"/>
</svg>
