<svg width="46" height="50" viewBox="0 0 46 50" fill="none" xmlns="http://www.w3.org/2000/svg">
<path d="M31.0306 41.963C30.23 44.5316 28.9623 46.4331 27.4278 47.7341C26.2269 48.7682 24.8925 49.4021 23.4914 49.7357C22.1571 50.0692 20.7893 50.0692 19.4883 49.8357C18.6544 49.6689 17.8538 49.4021 17.1199 49.0351C18.2874 49.5355 19.2882 49.0351 19.9554 48.5347C20.1555 48.3679 20.3557 48.2011 20.5225 48.001C20.756 47.7341 20.9228 47.4672 21.0896 47.167C21.9903 45.4657 22.524 43.8311 22.6908 42.2299C23.1578 37.8265 20.9561 33.79 15.7855 30.4208C14.6513 29.6869 13.417 28.9863 12.0159 28.3191C6.14472 25.4503 -1.22763 20.8801 0.173446 13.7746C0.573755 11.773 1.34101 10.3386 2.30843 9.27111C2.64202 8.90416 2.97561 8.57057 3.34256 8.3037C3.64279 8.07019 3.90966 7.87003 4.20989 7.70324C5.81113 6.73582 7.7126 6.30216 9.5807 6.46895C9.5807 6.46895 9.5807 6.46895 9.61406 6.46895C9.68078 6.46895 9.7475 6.46895 9.78086 6.46895C10.1144 6.50231 10.4814 6.53567 10.815 6.60239C14.7847 7.16949 18.1206 8.73737 20.8894 10.9057C23.358 12.8072 25.3595 15.2757 26.9608 17.9445C28.7622 20.9801 30.0298 24.3161 30.8304 27.6186C32.1314 33.1228 32.0981 38.4603 31.0306 41.963Z" fill="url(#paint0_linear)"/>
<path d="M21.323 46.6666C21.2563 46.8 21.1896 46.9668 21.0895 47.1003C20.7893 47.634 20.4223 48.101 19.922 48.5013C19.2548 49.0017 18.254 49.5021 17.0864 49.0017C15.5519 48.2345 14.2509 47.0002 13.517 45.4323C11.9491 42.1631 11.5155 37.9599 14.7847 32.022C15.0849 31.4882 15.4185 30.9211 15.7854 30.354C17.1865 31.2547 18.3874 32.2221 19.3548 33.2562C23.1578 37.1926 23.7249 41.7962 21.323 46.6666Z" fill="url(#paint1_linear)"/>
<path d="M45.875 17.3106C45.8083 17.7777 45.6749 18.3114 45.3413 18.8118C44.2071 20.6799 37.2017 22.5814 32.0977 26.5177C31.6641 26.8513 31.1971 27.2183 30.7967 27.6186C30.3297 25.5837 29.6625 23.5488 28.7952 21.5806C28.595 21.1136 28.3949 20.6465 28.1614 20.1795C27.7944 19.4123 27.3941 18.645 26.9604 17.9111C27.3941 17.5441 27.8611 17.2106 28.2948 16.9103C35 12.0065 40.0372 12.2401 42.5058 12.8405C43.9736 13.2075 45.2079 14.275 45.6749 15.7094C45.8417 16.2098 45.9084 16.7435 45.875 17.3106Z" fill="url(#paint2_linear)"/>
<path d="M32.8988 8.40377C31.3977 11.1392 27.9617 12.14 25.2262 10.6388C25.1929 10.6388 25.1595 10.6055 25.1262 10.6055C23.3915 9.6047 22.3574 7.80331 22.2906 5.9352C22.2573 4.93443 22.4574 3.93366 22.9912 2.96624C24.4923 0.230799 27.9283 -0.769973 30.6638 0.731185C31.0974 0.964698 31.4977 1.26493 31.8647 1.63188C32.732 2.46586 33.2991 3.53335 33.4993 4.70091C33.7328 5.9352 33.5327 7.2362 32.8988 8.40377Z" fill="url(#paint3_linear)"/>
<path opacity="0.2" d="M21.0897 47.1336C20.7895 47.6674 20.4225 48.1344 19.9221 48.5347C19.2549 49.0351 18.2542 49.5355 17.0866 49.0351C17.0866 49.0351 21.3232 49.7356 21.49 43.1639C21.6234 38.527 18.2542 33.5231 14.7515 32.0553C15.0517 31.5216 15.3853 30.9545 15.7522 30.3874C22.8244 34.9576 24.4256 40.8288 21.0897 47.1336Z" fill="#0F3013"/>
<path d="M45.3415 18.8118C44.2073 20.6799 37.2019 22.5814 32.098 26.5178C31.6643 26.8514 31.1973 27.2183 30.797 27.6186C30.3299 25.5837 29.6627 23.5488 28.7954 21.5806C33.5991 17.3107 41.6053 14.5085 43.4734 14.8755C46.1755 15.4426 45.3415 18.8118 45.3415 18.8118Z" fill="url(#paint4_linear)"/>
<path opacity="0.2" d="M32.0979 26.5177C31.6642 26.8513 31.1972 27.2183 30.7969 27.6186C29.9963 24.316 28.7286 20.9801 26.9272 17.9444C27.3609 17.5775 27.8279 17.2439 28.2616 16.9437C28.295 16.9437 30.8636 21.2803 32.0979 26.5177Z" fill="#0F3013"/>
<path d="M20.5223 47.9676C20.1887 48.6015 19.8551 49.2353 19.4881 49.8357C18.6541 49.669 17.8535 49.4021 17.1196 49.0351C18.2872 49.5355 19.288 49.0351 19.9551 48.5347C20.1553 48.3346 20.3221 48.1678 20.5223 47.9676Z" fill="url(#paint5_linear)"/>
<path opacity="0.15" d="M22.6908 42.1631C23.1578 37.7597 20.9561 33.7232 15.7855 30.354C14.6513 29.6201 13.417 28.9195 12.0159 28.2524C6.14472 25.4502 -1.22763 20.88 0.173446 13.7745C0.707191 11.1058 1.94148 9.40448 3.34256 8.30363C15.0182 11.7063 23.5581 22.4812 23.5581 35.2578C23.5581 37.6263 23.2579 39.9614 22.6908 42.1631Z" fill="#B5B5B5"/>
<path opacity="0.11" d="M32.8985 8.40375C31.3974 11.1392 27.9614 12.14 25.2259 10.6388C25.1926 10.6388 25.1592 10.6054 25.1259 10.6054C24.7923 9.83819 24.6255 8.97085 24.6255 8.07016C24.6255 8.00344 24.6255 7.97008 24.6255 7.90336C24.7256 4.40066 27.5944 1.56514 31.0971 1.56514C31.364 1.56514 31.5975 1.56514 31.8644 1.5985C32.7317 2.43248 33.2988 3.49997 33.499 4.66753C33.7325 5.93518 33.5324 7.23618 32.8985 8.40375Z" fill="#F6F6F6"/>
<path opacity="0.06" d="M33.4993 4.7009C32.4985 7.00268 30.1967 8.60391 27.5614 8.60391C26.4939 8.60391 25.5265 8.33704 24.6258 7.90337C23.6917 7.43635 22.8911 6.73581 22.2906 5.90183C22.2573 4.90106 22.4574 3.90028 22.9912 2.93287C24.4923 0.197428 27.9283 -0.803344 30.6638 0.697814C31.0974 0.931328 31.4977 1.23156 31.8647 1.59851C32.732 2.46584 33.2991 3.53333 33.4993 4.7009Z" fill="#F6F6F6"/>
<path opacity="0.88" d="M23.2244 6.33554C23.2244 6.56905 23.2244 6.7692 23.2577 7.00272C23.4245 8.37044 24.025 9.60472 24.959 10.5054C23.2911 9.50465 22.3237 7.73662 22.257 5.90187C22.2236 4.9011 22.4238 3.90032 22.9575 2.93291C24.4253 0.264187 27.6945 -0.736585 30.3966 0.597777C29.9629 0.4977 29.5292 0.430982 29.0622 0.430982C25.8597 0.464341 23.2244 3.09971 23.2244 6.33554Z" fill="#B5B5B5"/>
<path opacity="0.5" d="M31.0306 41.963C30.23 44.5316 28.9623 46.4331 27.4278 47.7341C26.2269 48.7682 24.8925 49.4021 23.4914 49.7357C22.1571 50.0692 20.7893 50.0692 19.4883 49.8357C18.6544 49.6689 17.8538 49.4021 17.1199 49.0351C18.2874 49.5355 19.2882 49.0351 19.9554 48.5347C20.1555 48.3679 20.3557 48.2011 20.5225 48.001C20.756 47.7341 20.9228 47.4672 21.0896 47.167C21.9903 45.4657 22.524 43.8311 22.6908 42.2299C23.1578 37.8265 20.9561 33.79 15.7855 30.4208C14.6513 29.6869 13.417 28.9863 12.0159 28.3191C6.14472 25.4503 -1.22763 20.8801 0.173446 13.7746C0.573755 11.773 1.34101 10.3386 2.30843 9.27111C2.64202 8.90416 2.97561 8.57057 3.34256 8.3037C3.64279 8.07019 3.90966 7.87003 4.20989 7.70324C5.81113 6.73582 7.7126 6.30216 9.5807 6.46895C9.5807 6.46895 9.5807 6.46895 9.61406 6.46895C9.68078 6.46895 9.7475 6.46895 9.78086 6.46895C10.1144 6.50231 10.4814 6.53567 10.815 6.60239C14.7847 7.16949 18.1206 8.73737 20.8894 10.9057C23.358 12.8072 25.3595 15.2757 26.9608 17.9445C28.7622 20.9801 30.0298 24.3161 30.8304 27.6186C32.1314 33.1228 32.0981 38.4603 31.0306 41.963Z" fill="#F6F6F6"/>
<defs>
<linearGradient id="paint0_linear" x1="1.49667" y1="7.55742" x2="36.1124" y2="50.9011" gradientUnits="userSpaceOnUse">
<stop offset="0.1426" stop-color="#F6F6F6"/>
<stop offset="0.5579" stop-color="#757575"/>
</linearGradient>
<linearGradient id="paint1_linear" x1="19.9311" y1="28.9136" x2="14.9762" y2="53.0684" gradientUnits="userSpaceOnUse">
<stop stop-color="#757575"/>
<stop offset="0.1667" stop-color="#8F8F8F"/>
<stop offset="0.5547" stop-color="#C6C6C6"/>
<stop offset="0.844" stop-color="#E9E9E9"/>
<stop offset="1" stop-color="#F6F6F6"/>
</linearGradient>
<linearGradient id="paint2_linear" x1="14.4842" y1="39.0447" x2="40.11" y2="14.6576" gradientUnits="userSpaceOnUse">
<stop stop-color="#757575"/>
<stop offset="0.2518" stop-color="#898989"/>
<stop offset="0.7303" stop-color="#A9A9A9"/>
<stop offset="0.9946" stop-color="#B5B5B5"/>
</linearGradient>
<linearGradient id="paint3_linear" x1="22.2789" y1="5.68337" x2="33.5844" y2="5.68337" gradientUnits="userSpaceOnUse">
<stop stop-color="#757575"/>
<stop offset="0.2518" stop-color="#898989"/>
<stop offset="0.7303" stop-color="#A9A9A9"/>
<stop offset="0.9946" stop-color="#B5B5B5"/>
</linearGradient>
<linearGradient id="paint4_linear" x1="18.8248" y1="32.2645" x2="54.2828" y2="8.83226" gradientUnits="userSpaceOnUse">
<stop stop-color="#757575"/>
<stop offset="0.2518" stop-color="#898989"/>
<stop offset="0.7303" stop-color="#A9A9A9"/>
<stop offset="0.9946" stop-color="#B5B5B5"/>
</linearGradient>
<linearGradient id="paint5_linear" x1="19.505" y1="49.5315" x2="18.2655" y2="47.6889" gradientUnits="userSpaceOnUse">
<stop offset="0.2729" stop-color="#757575"/>
<stop offset="0.7803" stop-color="#B5B5B5"/>
</linearGradient>
</defs>
</svg>
