<svg width="158" height="40" viewBox="0 0 158 40" fill="none" xmlns="http://www.w3.org/2000/svg">
<g filter="url(#filter0_d)">
<path d="M54.0538 13.6815V16.3415H49.8738V27.5415H46.7538V16.3415H42.5738V13.6815H54.0538ZM58.3751 25.4615C58.6684 25.4615 58.9484 25.4548 59.2151 25.4415C59.4817 25.4282 59.6951 25.4082 59.8551 25.3815V23.1215C59.7351 23.0948 59.5551 23.0682 59.3151 23.0415C59.0751 23.0148 58.8551 23.0015 58.6551 23.0015C58.3751 23.0015 58.1084 23.0215 57.8551 23.0615C57.6151 23.0882 57.4017 23.1482 57.2151 23.2415C57.0284 23.3348 56.8817 23.4615 56.7751 23.6215C56.6684 23.7815 56.6151 23.9815 56.6151 24.2215C56.6151 24.6882 56.7684 25.0148 57.0751 25.2015C57.3951 25.3748 57.8284 25.4615 58.3751 25.4615ZM58.1351 16.7415C59.0151 16.7415 59.7484 16.8415 60.3351 17.0415C60.9217 17.2415 61.3884 17.5282 61.7351 17.9015C62.0951 18.2748 62.3484 18.7282 62.4951 19.2615C62.6417 19.7948 62.7151 20.3882 62.7151 21.0415V27.2415C62.2884 27.3348 61.6951 27.4415 60.9351 27.5615C60.1751 27.6948 59.2551 27.7615 58.1751 27.7615C57.4951 27.7615 56.8751 27.7015 56.3151 27.5815C55.7684 27.4615 55.2951 27.2682 54.8951 27.0015C54.4951 26.7215 54.1884 26.3615 53.9751 25.9215C53.7617 25.4815 53.6551 24.9415 53.6551 24.3015C53.6551 23.6882 53.7751 23.1682 54.0151 22.7415C54.2684 22.3148 54.6017 21.9748 55.0151 21.7215C55.4284 21.4682 55.9017 21.2882 56.4351 21.1815C56.9684 21.0615 57.5217 21.0015 58.0951 21.0015C58.4817 21.0015 58.8217 21.0215 59.1151 21.0615C59.4217 21.0882 59.6684 21.1282 59.8551 21.1815V20.9015C59.8551 20.3948 59.7017 19.9882 59.3951 19.6815C59.0884 19.3748 58.5551 19.2215 57.7951 19.2215C57.2884 19.2215 56.7884 19.2615 56.2951 19.3415C55.8017 19.4082 55.3751 19.5082 55.0151 19.6415L54.6351 17.2415C54.8084 17.1882 55.0217 17.1348 55.2751 17.0815C55.5417 17.0148 55.8284 16.9615 56.1351 16.9215C56.4417 16.8682 56.7617 16.8282 57.0951 16.8015C57.4417 16.7615 57.7884 16.7415 58.1351 16.7415ZM69.6098 27.7415C68.7431 27.7282 68.0364 27.6348 67.4898 27.4615C66.9564 27.2882 66.5298 27.0482 66.2098 26.7415C65.9031 26.4215 65.6898 26.0415 65.5698 25.6015C65.4631 25.1482 65.4098 24.6415 65.4098 24.0815V12.5015L68.3898 12.0215V23.4815C68.3898 23.7482 68.4098 23.9882 68.4498 24.2015C68.4898 24.4148 68.5631 24.5948 68.6698 24.7415C68.7898 24.8882 68.9564 25.0082 69.1698 25.1015C69.3831 25.1948 69.6698 25.2548 70.0298 25.2815L69.6098 27.7415ZM71.2379 22.3615C71.2379 21.4282 71.3779 20.6148 71.6579 19.9215C71.9512 19.2148 72.3312 18.6282 72.7979 18.1615C73.2646 17.6948 73.7979 17.3415 74.3979 17.1015C75.0112 16.8615 75.6379 16.7415 76.2779 16.7415C77.7712 16.7415 78.9512 17.2015 79.8179 18.1215C80.6846 19.0282 81.1179 20.3682 81.1179 22.1415C81.1179 22.3148 81.1112 22.5082 81.0979 22.7215C81.0846 22.9215 81.0712 23.1015 81.0579 23.2615H74.2979C74.3646 23.8748 74.6512 24.3615 75.1579 24.7215C75.6646 25.0815 76.3446 25.2615 77.1979 25.2615C77.7446 25.2615 78.2779 25.2148 78.7979 25.1215C79.3312 25.0148 79.7646 24.8882 80.0979 24.7415L80.4979 27.1615C80.3379 27.2415 80.1246 27.3215 79.8579 27.4015C79.5912 27.4815 79.2912 27.5482 78.9579 27.6015C78.6379 27.6682 78.2912 27.7215 77.9179 27.7615C77.5446 27.8015 77.1712 27.8215 76.7979 27.8215C75.8512 27.8215 75.0246 27.6815 74.3179 27.4015C73.6246 27.1215 73.0446 26.7415 72.5779 26.2615C72.1246 25.7682 71.7846 25.1882 71.5579 24.5215C71.3446 23.8548 71.2379 23.1348 71.2379 22.3615ZM78.2379 21.2215C78.2246 20.9682 78.1779 20.7215 78.0979 20.4815C78.0312 20.2415 77.9179 20.0282 77.7579 19.8415C77.6112 19.6548 77.4179 19.5015 77.1779 19.3815C76.9512 19.2615 76.6646 19.2015 76.3179 19.2015C75.9846 19.2015 75.6979 19.2615 75.4579 19.3815C75.2179 19.4882 75.0179 19.6348 74.8579 19.8215C74.6979 20.0082 74.5712 20.2282 74.4779 20.4815C74.3979 20.7215 74.3379 20.9682 74.2979 21.2215H78.2379ZM83.4176 17.3815C83.9242 17.2348 84.5776 17.1015 85.3776 16.9815C86.1776 16.8482 87.0176 16.7815 87.8976 16.7815C88.7909 16.7815 89.5309 16.9015 90.1176 17.1415C90.7176 17.3682 91.1909 17.6948 91.5376 18.1215C91.8842 18.5482 92.1309 19.0548 92.2776 19.6415C92.4242 20.2282 92.4976 20.8815 92.4976 21.6015V27.5415H89.5176V21.9615C89.5176 21.0015 89.3909 20.3215 89.1376 19.9215C88.8842 19.5215 88.4109 19.3215 87.7176 19.3215C87.5042 19.3215 87.2776 19.3348 87.0376 19.3615C86.7976 19.3748 86.5842 19.3948 86.3976 19.4215V27.5415H83.4176V17.3815ZM95.0949 14.4015L98.0749 13.9215V17.0215H101.655V19.5015H98.0749V23.2015C98.0749 23.8282 98.1816 24.3282 98.3949 24.7015C98.6216 25.0748 99.0683 25.2615 99.7349 25.2615C100.055 25.2615 100.382 25.2348 100.715 25.1815C101.062 25.1148 101.375 25.0282 101.655 24.9215L102.075 27.2415C101.715 27.3882 101.315 27.5148 100.875 27.6215C100.435 27.7282 99.8949 27.7815 99.2549 27.7815C98.4416 27.7815 97.7683 27.6748 97.2349 27.4615C96.7016 27.2348 96.2749 26.9282 95.9549 26.5415C95.6349 26.1415 95.4083 25.6615 95.2749 25.1015C95.1549 24.5415 95.0949 23.9215 95.0949 23.2415V14.4015Z" fill="#EFEBEB"/>
<path d="M116.666 22.8815C116.666 23.5615 116.586 24.2015 116.426 24.8015C116.28 25.4015 116.013 25.9282 115.626 26.3815C115.253 26.8215 114.74 27.1748 114.086 27.4415C113.446 27.6948 112.633 27.8215 111.646 27.8215C110.74 27.8215 109.96 27.7148 109.306 27.5015C108.653 27.2748 108.113 27.0148 107.686 26.7215L108.726 24.3015C109.113 24.5282 109.526 24.7282 109.966 24.9015C110.406 25.0748 110.886 25.1615 111.406 25.1615C112.166 25.1615 112.713 24.9748 113.046 24.6015C113.38 24.2282 113.546 23.6015 113.546 22.7215V13.6815H116.666V22.8815ZM129.312 22.2615C129.312 23.0882 129.192 23.8482 128.952 24.5415C128.712 25.2215 128.366 25.8082 127.912 26.3015C127.459 26.7815 126.912 27.1548 126.272 27.4215C125.646 27.6882 124.939 27.8215 124.152 27.8215C123.379 27.8215 122.672 27.6882 122.032 27.4215C121.406 27.1548 120.866 26.7815 120.412 26.3015C119.959 25.8082 119.606 25.2215 119.352 24.5415C119.099 23.8482 118.972 23.0882 118.972 22.2615C118.972 21.4348 119.099 20.6815 119.352 20.0015C119.619 19.3215 119.979 18.7415 120.432 18.2615C120.899 17.7815 121.446 17.4082 122.072 17.1415C122.712 16.8748 123.406 16.7415 124.152 16.7415C124.912 16.7415 125.606 16.8748 126.232 17.1415C126.872 17.4082 127.419 17.7815 127.872 18.2615C128.326 18.7415 128.679 19.3215 128.932 20.0015C129.186 20.6815 129.312 21.4348 129.312 22.2615ZM126.272 22.2615C126.272 21.3415 126.086 20.6215 125.712 20.1015C125.352 19.5682 124.832 19.3015 124.152 19.3015C123.472 19.3015 122.946 19.5682 122.572 20.1015C122.199 20.6215 122.012 21.3415 122.012 22.2615C122.012 23.1815 122.199 23.9148 122.572 24.4615C122.946 24.9948 123.472 25.2615 124.152 25.2615C124.832 25.2615 125.352 24.9948 125.712 24.4615C126.086 23.9148 126.272 23.1815 126.272 22.2615ZM138.361 22.2015C138.361 20.2815 137.654 19.3215 136.241 19.3215C135.934 19.3215 135.627 19.3615 135.321 19.4415C135.027 19.5215 134.787 19.6215 134.601 19.7415V25.1615C134.747 25.1882 134.934 25.2148 135.161 25.2415C135.387 25.2548 135.634 25.2615 135.901 25.2615C136.714 25.2615 137.327 24.9815 137.741 24.4215C138.154 23.8615 138.361 23.1215 138.361 22.2015ZM141.401 22.2815C141.401 23.1215 141.274 23.8815 141.021 24.5615C140.781 25.2415 140.427 25.8215 139.961 26.3015C139.494 26.7815 138.921 27.1548 138.241 27.4215C137.561 27.6748 136.787 27.8015 135.921 27.8015C135.561 27.8015 135.181 27.7815 134.781 27.7415C134.394 27.7148 134.007 27.6748 133.621 27.6215C133.247 27.5682 132.887 27.5082 132.541 27.4415C132.194 27.3615 131.887 27.2815 131.621 27.2015V12.5015L134.601 12.0215V17.2615C134.934 17.1148 135.281 17.0015 135.641 16.9215C136.001 16.8415 136.387 16.8015 136.801 16.8015C137.547 16.8015 138.207 16.9348 138.781 17.2015C139.354 17.4548 139.834 17.8215 140.221 18.3015C140.607 18.7815 140.901 19.3615 141.101 20.0415C141.301 20.7082 141.401 21.4548 141.401 22.2815ZM146.711 25.4015C147.258 25.4015 147.644 25.3482 147.871 25.2415C148.098 25.1348 148.211 24.9282 148.211 24.6215C148.211 24.3815 148.064 24.1748 147.771 24.0015C147.478 23.8148 147.031 23.6082 146.431 23.3815C145.964 23.2082 145.538 23.0282 145.151 22.8415C144.778 22.6548 144.458 22.4348 144.191 22.1815C143.924 21.9148 143.718 21.6015 143.571 21.2415C143.424 20.8815 143.351 20.4482 143.351 19.9415C143.351 18.9548 143.718 18.1748 144.451 17.6015C145.184 17.0282 146.191 16.7415 147.471 16.7415C148.111 16.7415 148.724 16.8015 149.311 16.9215C149.898 17.0282 150.364 17.1482 150.711 17.2815L150.191 19.6015C149.844 19.4815 149.464 19.3748 149.051 19.2815C148.651 19.1882 148.198 19.1415 147.691 19.1415C146.758 19.1415 146.291 19.4015 146.291 19.9215C146.291 20.0415 146.311 20.1482 146.351 20.2415C146.391 20.3348 146.471 20.4282 146.591 20.5215C146.711 20.6015 146.871 20.6948 147.071 20.8015C147.284 20.8948 147.551 21.0015 147.871 21.1215C148.524 21.3615 149.064 21.6015 149.491 21.8415C149.918 22.0682 150.251 22.3215 150.491 22.6015C150.744 22.8682 150.918 23.1682 151.011 23.5015C151.118 23.8348 151.171 24.2215 151.171 24.6615C151.171 25.7015 150.778 26.4882 149.991 27.0215C149.218 27.5548 148.118 27.8215 146.691 27.8215C145.758 27.8215 144.978 27.7415 144.351 27.5815C143.738 27.4215 143.311 27.2882 143.071 27.1815L143.571 24.7615C144.078 24.9615 144.598 25.1215 145.131 25.2415C145.664 25.3482 146.191 25.4015 146.711 25.4015Z" fill="#F6F6F6"/>
</g>
<path d="M24.8245 33.5704C24.184 35.6254 23.1699 37.1465 21.9422 38.1873C20.9815 39.0146 19.914 39.5217 18.7931 39.7886C17.7257 40.0554 16.6315 40.0554 15.5907 39.8686C14.9235 39.7352 14.283 39.5217 13.6959 39.2281C14.6299 39.6284 15.4306 39.2281 15.9643 38.8278C16.1244 38.6944 16.2845 38.561 16.418 38.4008C16.6048 38.1873 16.7382 37.9738 16.8717 37.7337C17.5922 36.3726 18.0192 35.0649 18.1527 33.7839C18.5263 30.2612 16.7649 27.0321 12.6284 24.3367C11.721 23.7495 10.7336 23.1891 9.61273 22.6554C4.91577 20.3603 -0.982108 16.7041 0.138757 11.0197C0.459004 9.41848 1.07281 8.27093 1.84674 7.41694C2.11361 7.12338 2.38049 6.8565 2.67405 6.64301C2.91423 6.45619 3.12773 6.29607 3.36791 6.16263C4.6489 5.3887 6.17008 5.04177 7.66456 5.17521C7.66456 5.17521 7.66456 5.17521 7.69125 5.17521C7.74462 5.17521 7.798 5.17521 7.82469 5.17521C8.09156 5.20189 8.38512 5.22858 8.65199 5.28196C11.8278 5.73564 14.4965 6.98994 16.7115 8.72461C18.6864 10.2458 20.2876 12.2206 21.5686 14.3556C23.0097 16.7842 24.0238 19.4529 24.6643 22.0949C25.7051 26.4983 25.6785 30.7683 24.8245 33.5704Z" fill="url(#paint0_linear)"/>
<path d="M17.0582 37.3333C17.0049 37.44 16.9515 37.5735 16.8714 37.6802C16.6312 38.1072 16.3377 38.4808 15.9374 38.8011C15.4036 39.2014 14.603 39.6017 13.669 39.2014C12.4413 38.5876 11.4005 37.6001 10.8134 36.3458C9.55911 33.7305 9.21218 30.3679 11.8275 25.6176C12.0677 25.1906 12.3346 24.7369 12.6281 24.2832C13.749 25.0038 14.7098 25.7777 15.4837 26.605C18.526 29.7541 18.9797 33.4369 17.0582 37.3333Z" fill="url(#paint1_linear)"/>
<path d="M36.7 13.8485C36.6467 14.2221 36.5399 14.6491 36.273 15.0494C35.3657 16.5439 29.7613 18.0651 25.6782 21.2142C25.3313 21.4811 24.9576 21.7746 24.6374 22.0949C24.2638 20.467 23.73 18.839 23.0362 17.2645C22.876 16.8909 22.7159 16.5172 22.5291 16.1436C22.2355 15.5298 21.9153 14.916 21.5684 14.3289C21.9153 14.0353 22.2889 13.7685 22.6358 13.5283C28 9.60525 32.0298 9.79206 34.0046 10.2724C35.1789 10.566 36.1663 11.42 36.5399 12.5675C36.6733 12.9678 36.7267 13.3948 36.7 13.8485Z" fill="url(#paint2_linear)"/>
<path d="M26.3195 6.72298C25.1185 8.91133 22.3697 9.71195 20.1814 8.51102C20.1547 8.51102 20.128 8.48433 20.1013 8.48433C18.7136 7.68372 17.8863 6.24261 17.8329 4.74812C17.8062 3.9475 17.9663 3.14688 18.3933 2.37295C19.5943 0.1846 22.3431 -0.616018 24.5314 0.584908C24.8783 0.771719 25.1986 1.0119 25.4921 1.30546C26.186 1.97265 26.6397 2.82664 26.7998 3.76069C26.9866 4.74812 26.8265 5.78892 26.3195 6.72298Z" fill="url(#paint3_linear)"/>
<path opacity="0.2" d="M16.8714 37.7069C16.6312 38.1339 16.3376 38.5075 15.9373 38.8277C15.4036 39.228 14.6029 39.6283 13.6689 39.228C13.6689 39.228 17.0582 39.7885 17.1916 34.5311C17.2984 30.8215 14.6029 26.8185 11.8008 25.6442C12.041 25.2172 12.3078 24.7635 12.6014 24.3099C18.2591 27.966 19.5401 32.663 16.8714 37.7069Z" fill="#0F3013"/>
<path d="M36.273 15.0495C35.3656 16.544 29.7613 18.0651 25.6782 21.2142C25.3312 21.4811 24.9576 21.7747 24.6374 22.0949C24.2637 20.467 23.73 18.8391 23.0361 17.2645C26.8791 13.8485 33.284 11.6068 34.7785 11.9004C36.9402 12.3541 36.273 15.0495 36.273 15.0495Z" fill="url(#paint4_linear)"/>
<path opacity="0.2" d="M25.6785 21.2141C25.3316 21.481 24.958 21.7746 24.6377 22.0948C23.9972 19.4528 22.9831 16.784 21.542 14.3555C21.8889 14.0619 22.2625 13.7951 22.6095 13.5549C22.6362 13.5549 24.6911 17.0242 25.6785 21.2141Z" fill="#0F3013"/>
<path d="M16.4174 38.3741C16.1505 38.8812 15.8837 39.3882 15.5901 39.8686C14.9229 39.7352 14.2824 39.5217 13.6953 39.2281C14.6294 39.6284 15.43 39.2281 15.9637 38.8278C16.1239 38.6677 16.2573 38.5342 16.4174 38.3741Z" fill="url(#paint5_linear)"/>
<path opacity="0.15" d="M18.1527 33.7304C18.5263 30.2077 16.7649 26.9786 12.6284 24.2831C11.721 23.696 10.7336 23.1356 9.61273 22.6018C4.91577 20.3601 -0.982108 16.704 0.138757 11.0196C0.565753 8.8846 1.55318 7.52355 2.67405 6.64287C12.0146 9.36497 18.8465 17.985 18.8465 28.2062C18.8465 30.101 18.6063 31.9691 18.1527 33.7304Z" fill="#B5B5B5"/>
<path opacity="0.11" d="M26.3186 6.72304C25.1177 8.91139 22.3689 9.71201 20.1806 8.51108C20.1539 8.51108 20.1272 8.4844 20.1005 8.4844C19.8336 7.87059 19.7002 7.17672 19.7002 6.45617C19.7002 6.40279 19.7002 6.3761 19.7002 6.32273C19.7803 3.52057 22.0754 1.25215 24.8775 1.25215C25.091 1.25215 25.2778 1.25215 25.4913 1.27884C26.1852 1.94602 26.6389 2.80001 26.799 3.73407C26.9858 4.74818 26.8257 5.78898 26.3186 6.72304Z" fill="#F6F6F6"/>
<path opacity="0.06" d="M26.7998 3.76072C25.9992 5.60214 24.1578 6.88313 22.0495 6.88313C21.1955 6.88313 20.4216 6.66963 19.701 6.3227C18.9538 5.94908 18.3133 5.38864 17.8329 4.72146C17.8062 3.92085 17.9663 3.12023 18.3933 2.3463C19.5943 0.157942 22.3431 -0.642675 24.5314 0.558251C24.8783 0.745062 25.1986 0.985247 25.4921 1.27881C26.186 1.97268 26.6397 2.82667 26.7998 3.76072Z" fill="#F6F6F6"/>
<path opacity="0.88" d="M18.5795 5.06841C18.5795 5.25522 18.5795 5.41534 18.6062 5.60215C18.7396 6.69633 19.22 7.68376 19.9672 8.40431C18.6329 7.60369 17.8589 6.18927 17.8056 4.72147C17.7789 3.92085 17.939 3.12024 18.366 2.34631C19.5402 0.211326 22.1556 -0.589291 24.3173 0.478199C23.9703 0.398137 23.6234 0.344763 23.2498 0.344763C20.6878 0.37145 18.5795 2.47974 18.5795 5.06841Z" fill="#B5B5B5"/>
<path opacity="0.5" d="M24.8245 33.5704C24.184 35.6254 23.1699 37.1465 21.9422 38.1873C20.9815 39.0146 19.914 39.5217 18.7931 39.7886C17.7257 40.0554 16.6315 40.0554 15.5907 39.8686C14.9235 39.7352 14.283 39.5217 13.6959 39.2281C14.6299 39.6284 15.4306 39.2281 15.9643 38.8278C16.1244 38.6944 16.2845 38.561 16.418 38.4008C16.6048 38.1873 16.7382 37.9738 16.8717 37.7337C17.5922 36.3726 18.0192 35.0649 18.1527 33.7839C18.5263 30.2612 16.7649 27.0321 12.6284 24.3367C11.721 23.7495 10.7336 23.1891 9.61273 22.6554C4.91577 20.3603 -0.982108 16.7041 0.138757 11.0197C0.459004 9.41848 1.07281 8.27093 1.84674 7.41694C2.11361 7.12338 2.38049 6.8565 2.67405 6.64301C2.91423 6.45619 3.12773 6.29607 3.36791 6.16263C4.6489 5.3887 6.17008 5.04177 7.66456 5.17521C7.66456 5.17521 7.66456 5.17521 7.69125 5.17521C7.74462 5.17521 7.798 5.17521 7.82469 5.17521C8.09156 5.20189 8.38512 5.22858 8.65199 5.28196C11.8278 5.73564 14.4965 6.98994 16.7115 8.72461C18.6864 10.2458 20.2876 12.2206 21.5686 14.3556C23.0097 16.7842 24.0238 19.4529 24.6643 22.0949C25.7051 26.4983 25.6785 30.7683 24.8245 33.5704Z" fill="#F6F6F6"/>
<defs>
<filter id="filter0_d" x="38.5742" y="10.0215" width="116.597" height="23.8" filterUnits="userSpaceOnUse" color-interpolation-filters="sRGB">
<feFlood flood-opacity="0" result="BackgroundImageFix"/>
<feColorMatrix in="SourceAlpha" type="matrix" values="0 0 0 0 0 0 0 0 0 0 0 0 0 0 0 0 0 0 127 0"/>
<feOffset dy="2"/>
<feGaussianBlur stdDeviation="2"/>
<feColorMatrix type="matrix" values="0 0 0 0 0 0 0 0 0 0 0 0 0 0 0 0 0 0 0.25 0"/>
<feBlend mode="normal" in2="BackgroundImageFix" result="effect1_dropShadow"/>
<feBlend mode="normal" in="SourceGraphic" in2="effect1_dropShadow" result="shape"/>
</filter>
<linearGradient id="paint0_linear" x1="1.19733" y1="6.04598" x2="28.89" y2="40.7209" gradientUnits="userSpaceOnUse">
<stop offset="0.1426" stop-color="#F6F6F6"/>
<stop offset="0.5579" stop-color="#757575"/>
</linearGradient>
<linearGradient id="paint1_linear" x1="15.9447" y1="23.1308" x2="11.9808" y2="42.4547" gradientUnits="userSpaceOnUse">
<stop stop-color="#757575"/>
<stop offset="0.1667" stop-color="#8F8F8F"/>
<stop offset="0.5547" stop-color="#C6C6C6"/>
<stop offset="0.844" stop-color="#E9E9E9"/>
<stop offset="1" stop-color="#F6F6F6"/>
</linearGradient>
<linearGradient id="paint2_linear" x1="11.5874" y1="31.2358" x2="32.088" y2="11.7261" gradientUnits="userSpaceOnUse">
<stop stop-color="#757575"/>
<stop offset="0.2518" stop-color="#898989"/>
<stop offset="0.7303" stop-color="#A9A9A9"/>
<stop offset="0.9946" stop-color="#B5B5B5"/>
</linearGradient>
<linearGradient id="paint3_linear" x1="17.8235" y1="4.54666" x2="26.8679" y2="4.54666" gradientUnits="userSpaceOnUse">
<stop stop-color="#757575"/>
<stop offset="0.2518" stop-color="#898989"/>
<stop offset="0.7303" stop-color="#A9A9A9"/>
<stop offset="0.9946" stop-color="#B5B5B5"/>
</linearGradient>
<linearGradient id="paint4_linear" x1="15.0596" y1="25.8116" x2="43.426" y2="7.06582" gradientUnits="userSpaceOnUse">
<stop stop-color="#757575"/>
<stop offset="0.2518" stop-color="#898989"/>
<stop offset="0.7303" stop-color="#A9A9A9"/>
<stop offset="0.9946" stop-color="#B5B5B5"/>
</linearGradient>
<linearGradient id="paint5_linear" x1="15.6036" y1="39.6252" x2="14.612" y2="38.1511" gradientUnits="userSpaceOnUse">
<stop offset="0.2729" stop-color="#757575"/>
<stop offset="0.7803" stop-color="#B5B5B5"/>
</linearGradient>
</defs>
</svg>
