<svg width="139" height="35" viewBox="0 0 139 35" fill="none" xmlns="http://www.w3.org/2000/svg">
<path d="M21.7214 29.3741C21.161 31.1721 20.2736 32.5031 19.1995 33.4139C18.3588 34.1377 17.4248 34.5814 16.444 34.8149C15.5099 35.0484 14.5525 35.0484 13.6418 34.885C13.0581 34.7682 12.4976 34.5814 11.9839 34.3246C12.8012 34.6748 13.5017 34.3246 13.9688 33.9743C14.1089 33.8575 14.249 33.7408 14.3657 33.6007C14.5292 33.4139 14.6459 33.227 14.7627 33.0169C15.3932 31.826 15.7668 30.6817 15.8836 29.5609C16.2105 26.4785 14.6693 23.653 11.0498 21.2945C10.2559 20.7808 9.3919 20.2904 8.41114 19.8234C4.3013 17.8152 -0.859344 14.616 0.121412 9.64218C0.401628 8.2411 0.938709 7.23699 1.6159 6.48975C1.84941 6.23288 2.08293 5.99937 2.33979 5.81256C2.54995 5.6491 2.73676 5.50899 2.94692 5.39224C4.06779 4.71505 5.39882 4.41148 6.70649 4.52824C6.70649 4.52824 6.70649 4.52824 6.72984 4.52824C6.77655 4.52824 6.82325 4.52824 6.8466 4.52824C7.08011 4.55159 7.33698 4.57494 7.57049 4.62164C10.3493 5.01861 12.6844 6.11613 14.6226 7.63396C16.3506 8.96499 17.7517 10.693 18.8725 12.5611C20.1335 14.6861 21.0209 17.0212 21.5813 19.333C22.492 23.186 22.4686 26.9222 21.7214 29.3741Z" fill="url(#paint0_linear)"/>
<path d="M14.9258 32.6666C14.8791 32.76 14.8324 32.8768 14.7624 32.9702C14.5522 33.3438 14.2953 33.6707 13.9451 33.9509C13.478 34.3012 12.7775 34.6515 11.9602 34.3012C10.886 33.7641 9.97535 32.9001 9.46162 31.8026C8.3641 29.5142 8.06053 26.5719 10.349 22.4154C10.5591 22.0417 10.7926 21.6448 11.0495 21.2478C12.0303 21.8783 12.8709 22.5555 13.5481 23.2794C16.2102 26.0348 16.6071 29.2573 14.9258 32.6666Z" fill="url(#paint1_linear)"/>
<path d="M32.1123 12.1175C32.0656 12.4444 31.9722 12.818 31.7387 13.1683C30.9447 14.476 26.0409 15.807 22.4682 18.5625C22.1646 18.796 21.8377 19.0528 21.5575 19.3331C21.2306 17.9086 20.7635 16.4842 20.1564 15.1065C20.0163 14.7795 19.8762 14.4526 19.7127 14.1257C19.4559 13.5886 19.1756 13.0515 18.8721 12.5378C19.1756 12.281 19.5026 12.0474 19.8061 11.8373C24.4997 8.40463 28.0258 8.56809 29.7538 8.98841C30.7813 9.24528 31.6453 9.99252 31.9722 10.9966C32.0889 11.3469 32.1356 11.7205 32.1123 12.1175Z" fill="url(#paint2_linear)"/>
<path d="M23.0298 5.88259C21.979 7.7974 19.5738 8.49794 17.659 7.44713C17.6356 7.44713 17.6123 7.42378 17.5889 7.42378C16.3746 6.72324 15.6507 5.46227 15.604 4.15459C15.5807 3.45405 15.7208 2.75351 16.0944 2.07633C17.1452 0.161515 19.5504 -0.539025 21.4652 0.511785C21.7688 0.675245 22.049 0.885407 22.3059 1.14227C22.913 1.72605 23.31 2.4733 23.4501 3.2906C23.6136 4.15459 23.4734 5.0653 23.0298 5.88259Z" fill="url(#paint3_linear)"/>
<path opacity="0.2" d="M14.7629 32.9935C14.5528 33.3671 14.2959 33.694 13.9456 33.9742C13.4786 34.3245 12.7781 34.6748 11.9608 34.3245C11.9608 34.3245 14.9264 34.8149 15.0431 30.2147C15.1365 26.9688 12.7781 23.4661 10.3262 22.4387C10.5363 22.0651 10.7698 21.6681 11.0267 21.2711C15.9772 24.4703 17.0981 28.5801 14.7629 32.9935Z" fill="#0F3013"/>
<path d="M31.7385 13.1683C30.9446 14.4759 26.0408 15.807 22.468 18.5624C22.1645 18.7959 21.8375 19.0528 21.5573 19.333C21.2304 17.9086 20.7634 16.4842 20.1562 15.1064C23.5188 12.1174 29.1232 10.1559 30.4308 10.4128C32.3223 10.8098 31.7385 13.1683 31.7385 13.1683Z" fill="url(#paint4_linear)"/>
<path opacity="0.2" d="M22.4691 18.5624C22.1655 18.7959 21.8386 19.0528 21.5584 19.333C20.9979 17.0212 20.1106 14.6861 18.8496 12.5611C19.1532 12.3043 19.4801 12.0708 19.7837 11.8606C19.807 11.8606 21.6051 14.8963 22.4691 18.5624Z" fill="#0F3013"/>
<path d="M14.3652 33.5774C14.1317 34.0211 13.8982 34.4647 13.6413 34.8851C13.0576 34.7683 12.4971 34.5815 11.9834 34.3246C12.8007 34.6749 13.5012 34.3246 13.9683 33.9744C14.1084 33.8343 14.2251 33.7175 14.3652 33.5774Z" fill="url(#paint5_linear)"/>
<path opacity="0.15" d="M15.8836 29.5141C16.2105 26.4317 14.6693 23.6062 11.0498 21.2477C10.2559 20.734 9.3919 20.2436 8.41114 19.7766C4.3013 17.8151 -0.859344 14.616 0.121412 9.64212C0.495034 7.77401 1.35903 6.58309 2.33979 5.8125C10.5128 8.19434 16.4907 15.7368 16.4907 24.6804C16.4907 26.3383 16.2805 27.9729 15.8836 29.5141Z" fill="#B5B5B5"/>
<path opacity="0.11" d="M23.0284 5.88273C21.9776 7.79754 19.5724 8.49808 17.6576 7.44727C17.6343 7.44727 17.6109 7.42392 17.5876 7.42392C17.3541 6.88684 17.2373 6.2797 17.2373 5.64922C17.2373 5.60251 17.2373 5.57916 17.2373 5.53246C17.3074 3.08057 19.3156 1.0957 21.7675 1.0957C21.9543 1.0957 22.1177 1.0957 22.3045 1.11905C22.9117 1.70284 23.3087 2.45008 23.4488 3.26738C23.6122 4.15473 23.4721 5.06543 23.0284 5.88273Z" fill="#F6F6F6"/>
<path opacity="0.06" d="M23.4501 3.29063C22.7496 4.90187 21.1383 6.02274 19.2936 6.02274C18.5463 6.02274 17.8691 5.83593 17.2386 5.53236C16.5848 5.20544 16.0244 4.71506 15.604 4.13128C15.5807 3.43074 15.7208 2.7302 16.0944 2.05301C17.1452 0.1382 19.5504 -0.562341 21.4652 0.48847C21.7688 0.651929 22.049 0.862091 22.3059 1.11896C22.913 1.72609 23.31 2.47333 23.4501 3.29063Z" fill="#F6F6F6"/>
<path opacity="0.88" d="M16.2568 4.43483C16.2568 4.59829 16.2568 4.7384 16.2802 4.90186C16.3969 5.85926 16.8172 6.72326 17.4711 7.35375C16.3035 6.65321 15.6263 5.41559 15.5796 4.13126C15.5563 3.43072 15.6964 2.73018 16.07 2.05299C17.0975 0.184885 19.3859 -0.515655 21.2774 0.418398C20.9738 0.348344 20.6702 0.301642 20.3433 0.301642C18.1016 0.324993 16.2568 2.16975 16.2568 4.43483Z" fill="#B5B5B5"/>
<path opacity="0.5" d="M21.7214 29.3741C21.161 31.1721 20.2736 32.5031 19.1995 33.4139C18.3588 34.1377 17.4248 34.5814 16.444 34.8149C15.5099 35.0484 14.5525 35.0484 13.6418 34.885C13.0581 34.7682 12.4976 34.5814 11.9839 34.3246C12.8012 34.6748 13.5017 34.3246 13.9688 33.9743C14.1089 33.8575 14.249 33.7408 14.3657 33.6007C14.5292 33.4139 14.6459 33.227 14.7627 33.0169C15.3932 31.826 15.7668 30.6817 15.8836 29.5609C16.2105 26.4785 14.6693 23.653 11.0498 21.2945C10.2559 20.7808 9.3919 20.2904 8.41114 19.8234C4.3013 17.8152 -0.859344 14.616 0.121412 9.64218C0.401628 8.2411 0.938709 7.23699 1.6159 6.48975C1.84941 6.23288 2.08293 5.99937 2.33979 5.81256C2.54995 5.6491 2.73676 5.50899 2.94692 5.39224C4.06779 4.71505 5.39882 4.41148 6.70649 4.52824C6.70649 4.52824 6.70649 4.52824 6.72984 4.52824C6.77655 4.52824 6.82325 4.52824 6.8466 4.52824C7.08011 4.55159 7.33698 4.57494 7.57049 4.62164C10.3493 5.01861 12.6844 6.11613 14.6226 7.63396C16.3506 8.96499 17.7517 10.693 18.8725 12.5611C20.1335 14.6861 21.0209 17.0212 21.5813 19.333C22.492 23.186 22.4686 26.9222 21.7214 29.3741Z" fill="#F6F6F6"/>
<g filter="url(#filter0_d)">
<path d="M47.332 12.494V14.888H43.57V24.968H40.762V14.888H37V12.494H47.332Z" fill="#A09C9C"/>
<path d="M51.2211 23.096C51.4851 23.096 51.7371 23.09 51.9771 23.078C52.2171 23.066 52.4091 23.048 52.5531 23.024V20.99C52.4451 20.966 52.2831 20.942 52.0671 20.918C51.8511 20.894 51.6531 20.882 51.4731 20.882C51.2211 20.882 50.9811 20.9 50.7531 20.936C50.5371 20.96 50.3451 21.014 50.1771 21.098C50.0091 21.182 49.8771 21.296 49.7811 21.44C49.6851 21.584 49.6371 21.764 49.6371 21.98C49.6371 22.4 49.7751 22.694 50.0511 22.862C50.3391 23.018 50.7291 23.096 51.2211 23.096ZM51.0051 15.248C51.7971 15.248 52.4571 15.338 52.9851 15.518C53.5131 15.698 53.9331 15.956 54.2451 16.292C54.5691 16.628 54.7971 17.036 54.9291 17.516C55.0611 17.996 55.1271 18.53 55.1271 19.118V24.698C54.7431 24.782 54.2091 24.878 53.5251 24.986C52.8411 25.106 52.0131 25.166 51.0411 25.166C50.4291 25.166 49.8711 25.112 49.3671 25.004C48.8751 24.896 48.4491 24.722 48.0891 24.482C47.7291 24.23 47.4531 23.906 47.2611 23.51C47.0691 23.114 46.9731 22.628 46.9731 22.052C46.9731 21.5 47.0811 21.032 47.2971 20.648C47.5251 20.264 47.8251 19.958 48.1971 19.73C48.5691 19.502 48.9951 19.34 49.4751 19.244C49.9551 19.136 50.4531 19.082 50.9691 19.082C51.3171 19.082 51.6231 19.1 51.8871 19.136C52.1631 19.16 52.3851 19.196 52.5531 19.244V18.992C52.5531 18.536 52.4151 18.17 52.1391 17.894C51.8631 17.618 51.3831 17.48 50.6991 17.48C50.2431 17.48 49.7931 17.516 49.3491 17.588C48.9051 17.648 48.5211 17.738 48.1971 17.858L47.8551 15.698C48.0111 15.65 48.2031 15.602 48.4311 15.554C48.6711 15.494 48.9291 15.446 49.2051 15.41C49.4811 15.362 49.7691 15.326 50.0691 15.302C50.3811 15.266 50.6931 15.248 51.0051 15.248Z" fill="#A09C9C"/>
<path d="M61.3323 25.148C60.5523 25.136 59.9163 25.052 59.4243 24.896C58.9443 24.74 58.5603 24.524 58.2723 24.248C57.9963 23.96 57.8043 23.618 57.6963 23.222C57.6003 22.814 57.5523 22.358 57.5523 21.854V11.432L60.2343 11V21.314C60.2343 21.554 60.2523 21.77 60.2883 21.962C60.3243 22.154 60.3903 22.316 60.4863 22.448C60.5943 22.58 60.7443 22.688 60.9363 22.772C61.1283 22.856 61.3863 22.91 61.7103 22.934L61.3323 25.148Z" fill="#A09C9C"/>
<path d="M62.7977 20.306C62.7977 19.466 62.9237 18.734 63.1757 18.11C63.4397 17.474 63.7817 16.946 64.2017 16.526C64.6217 16.106 65.1017 15.788 65.6417 15.572C66.1937 15.356 66.7577 15.248 67.3337 15.248C68.6777 15.248 69.7397 15.662 70.5197 16.49C71.2997 17.306 71.6897 18.512 71.6897 20.108C71.6897 20.264 71.6837 20.438 71.6717 20.63C71.6597 20.81 71.6477 20.972 71.6357 21.116H65.5517C65.6117 21.668 65.8697 22.106 66.3257 22.43C66.7817 22.754 67.3937 22.916 68.1617 22.916C68.6537 22.916 69.1337 22.874 69.6017 22.79C70.0817 22.694 70.4717 22.58 70.7717 22.448L71.1317 24.626C70.9877 24.698 70.7957 24.77 70.5557 24.842C70.3157 24.914 70.0457 24.974 69.7457 25.022C69.4577 25.082 69.1457 25.13 68.8097 25.166C68.4737 25.202 68.1377 25.22 67.8017 25.22C66.9497 25.22 66.2057 25.094 65.5697 24.842C64.9457 24.59 64.4237 24.248 64.0037 23.816C63.5957 23.372 63.2897 22.85 63.0857 22.25C62.8937 21.65 62.7977 21.002 62.7977 20.306ZM69.0977 19.28C69.0857 19.052 69.0437 18.83 68.9717 18.614C68.9117 18.398 68.8097 18.206 68.6657 18.038C68.5337 17.87 68.3597 17.732 68.1437 17.624C67.9397 17.516 67.6817 17.462 67.3697 17.462C67.0697 17.462 66.8117 17.516 66.5957 17.624C66.3797 17.72 66.1997 17.852 66.0557 18.02C65.9117 18.188 65.7977 18.386 65.7137 18.614C65.6417 18.83 65.5877 19.052 65.5517 19.28H69.0977Z" fill="#A09C9C"/>
<path d="M73.7594 15.824C74.2154 15.692 74.8034 15.572 75.5234 15.464C76.2434 15.344 76.9994 15.284 77.7914 15.284C78.5954 15.284 79.2614 15.392 79.7894 15.608C80.3294 15.812 80.7554 16.106 81.0674 16.49C81.3794 16.874 81.6014 17.33 81.7334 17.858C81.8654 18.386 81.9314 18.974 81.9314 19.622V24.968H79.2494V19.946C79.2494 19.082 79.1354 18.47 78.9074 18.11C78.6794 17.75 78.2534 17.57 77.6294 17.57C77.4374 17.57 77.2334 17.582 77.0174 17.606C76.8014 17.618 76.6094 17.636 76.4414 17.66V24.968H73.7594V15.824Z" fill="#A09C9C"/>
<path d="M84.269 13.142L86.951 12.71V15.5H90.173V17.732H86.951V21.062C86.951 21.626 87.047 22.076 87.239 22.412C87.443 22.748 87.845 22.916 88.445 22.916C88.733 22.916 89.027 22.892 89.327 22.844C89.639 22.784 89.921 22.706 90.173 22.61L90.551 24.698C90.227 24.83 89.867 24.944 89.471 25.04C89.075 25.136 88.589 25.184 88.013 25.184C87.281 25.184 86.675 25.088 86.195 24.896C85.715 24.692 85.331 24.416 85.043 24.068C84.755 23.708 84.551 23.276 84.431 22.772C84.323 22.268 84.269 21.71 84.269 21.098V13.142Z" fill="#A09C9C"/>
</g>
<g filter="url(#filter1_d)">
<path d="M103.684 20.774C103.684 21.386 103.612 21.962 103.468 22.502C103.336 23.042 103.096 23.516 102.748 23.924C102.412 24.32 101.95 24.638 101.362 24.878C100.786 25.106 100.054 25.22 99.1656 25.22C98.3496 25.22 97.6476 25.124 97.0596 24.932C96.4716 24.728 95.9856 24.494 95.6016 24.23L96.5376 22.052C96.8856 22.256 97.2576 22.436 97.6536 22.592C98.0496 22.748 98.4816 22.826 98.9496 22.826C99.6336 22.826 100.126 22.658 100.426 22.322C100.726 21.986 100.876 21.422 100.876 20.63V12.494H103.684V20.774Z" fill="#F6F6F6"/>
<path d="M115.065 20.216C115.065 20.96 114.957 21.644 114.741 22.268C114.525 22.88 114.213 23.408 113.805 23.852C113.397 24.284 112.905 24.62 112.329 24.86C111.765 25.1 111.129 25.22 110.421 25.22C109.725 25.22 109.089 25.1 108.513 24.86C107.949 24.62 107.463 24.284 107.055 23.852C106.647 23.408 106.329 22.88 106.101 22.268C105.873 21.644 105.759 20.96 105.759 20.216C105.759 19.472 105.873 18.794 106.101 18.182C106.341 17.57 106.665 17.048 107.073 16.616C107.493 16.184 107.985 15.848 108.549 15.608C109.125 15.368 109.749 15.248 110.421 15.248C111.105 15.248 111.729 15.368 112.293 15.608C112.869 15.848 113.361 16.184 113.769 16.616C114.177 17.048 114.495 17.57 114.723 18.182C114.951 18.794 115.065 19.472 115.065 20.216ZM112.329 20.216C112.329 19.388 112.161 18.74 111.825 18.272C111.501 17.792 111.033 17.552 110.421 17.552C109.809 17.552 109.335 17.792 108.999 18.272C108.663 18.74 108.495 19.388 108.495 20.216C108.495 21.044 108.663 21.704 108.999 22.196C109.335 22.676 109.809 22.916 110.421 22.916C111.033 22.916 111.501 22.676 111.825 22.196C112.161 21.704 112.329 21.044 112.329 20.216Z" fill="#F6F6F6"/>
<path d="M123.208 20.162C123.208 18.434 122.572 17.57 121.3 17.57C121.024 17.57 120.749 17.606 120.473 17.678C120.209 17.75 119.993 17.84 119.825 17.948V22.826C119.957 22.85 120.124 22.874 120.328 22.898C120.532 22.91 120.754 22.916 120.994 22.916C121.726 22.916 122.278 22.664 122.65 22.16C123.022 21.656 123.208 20.99 123.208 20.162ZM125.944 20.234C125.944 20.99 125.831 21.674 125.603 22.286C125.387 22.898 125.068 23.42 124.648 23.852C124.228 24.284 123.713 24.62 123.101 24.86C122.489 25.088 121.792 25.202 121.012 25.202C120.688 25.202 120.347 25.184 119.987 25.148C119.639 25.124 119.29 25.088 118.942 25.04C118.606 24.992 118.282 24.938 117.97 24.878C117.658 24.806 117.383 24.734 117.143 24.662V11.432L119.825 11V15.716C120.125 15.584 120.436 15.482 120.76 15.41C121.084 15.338 121.432 15.302 121.804 15.302C122.476 15.302 123.071 15.422 123.587 15.662C124.103 15.89 124.534 16.22 124.882 16.652C125.231 17.084 125.494 17.606 125.674 18.218C125.854 18.818 125.944 19.49 125.944 20.234Z" fill="#F6F6F6"/>
<path d="M130.724 23.042C131.216 23.042 131.564 22.994 131.768 22.898C131.972 22.802 132.074 22.616 132.074 22.34C132.074 22.124 131.942 21.938 131.678 21.782C131.414 21.614 131.012 21.428 130.472 21.224C130.052 21.068 129.668 20.906 129.32 20.738C128.984 20.57 128.696 20.372 128.456 20.144C128.216 19.904 128.03 19.622 127.898 19.298C127.766 18.974 127.7 18.584 127.7 18.128C127.7 17.24 128.03 16.538 128.69 16.022C129.35 15.506 130.256 15.248 131.408 15.248C131.984 15.248 132.536 15.302 133.064 15.41C133.592 15.506 134.012 15.614 134.324 15.734L133.856 17.822C133.544 17.714 133.202 17.618 132.83 17.534C132.47 17.45 132.062 17.408 131.606 17.408C130.766 17.408 130.346 17.642 130.346 18.11C130.346 18.218 130.364 18.314 130.4 18.398C130.436 18.482 130.508 18.566 130.616 18.65C130.724 18.722 130.868 18.806 131.048 18.902C131.24 18.986 131.48 19.082 131.768 19.19C132.356 19.406 132.842 19.622 133.226 19.838C133.61 20.042 133.91 20.27 134.126 20.522C134.354 20.762 134.51 21.032 134.594 21.332C134.69 21.632 134.738 21.98 134.738 22.376C134.738 23.312 134.384 24.02 133.676 24.5C132.98 24.98 131.99 25.22 130.706 25.22C129.866 25.22 129.164 25.148 128.6 25.004C128.048 24.86 127.664 24.74 127.448 24.644L127.898 22.466C128.354 22.646 128.822 22.79 129.302 22.898C129.782 22.994 130.256 23.042 130.724 23.042Z" fill="#F6F6F6"/>
</g>
<defs>
<filter id="filter0_d" x="33" y="9" width="61.551" height="22.22" filterUnits="userSpaceOnUse" color-interpolation-filters="sRGB">
<feFlood flood-opacity="0" result="BackgroundImageFix"/>
<feColorMatrix in="SourceAlpha" type="matrix" values="0 0 0 0 0 0 0 0 0 0 0 0 0 0 0 0 0 0 127 0"/>
<feOffset dy="2"/>
<feGaussianBlur stdDeviation="2"/>
<feColorMatrix type="matrix" values="0 0 0 0 0 0 0 0 0 0 0 0 0 0 0 0 0 0 0.25 0"/>
<feBlend mode="normal" in2="BackgroundImageFix" result="effect1_dropShadow"/>
<feBlend mode="normal" in="SourceGraphic" in2="effect1_dropShadow" result="shape"/>
</filter>
<filter id="filter1_d" x="91.6016" y="9" width="47.1362" height="22.22" filterUnits="userSpaceOnUse" color-interpolation-filters="sRGB">
<feFlood flood-opacity="0" result="BackgroundImageFix"/>
<feColorMatrix in="SourceAlpha" type="matrix" values="0 0 0 0 0 0 0 0 0 0 0 0 0 0 0 0 0 0 127 0"/>
<feOffset dy="2"/>
<feGaussianBlur stdDeviation="2"/>
<feColorMatrix type="matrix" values="0 0 0 0 0 0 0 0 0 0 0 0 0 0 0 0 0 0 0.25 0"/>
<feBlend mode="normal" in2="BackgroundImageFix" result="effect1_dropShadow"/>
<feBlend mode="normal" in="SourceGraphic" in2="effect1_dropShadow" result="shape"/>
</filter>
<linearGradient id="paint0_linear" x1="1.04767" y1="5.29017" x2="25.2787" y2="35.6307" gradientUnits="userSpaceOnUse">
<stop offset="0.1426" stop-color="#F6F6F6"/>
<stop offset="0.5579" stop-color="#757575"/>
</linearGradient>
<linearGradient id="paint1_linear" x1="13.9514" y1="20.2395" x2="10.4831" y2="37.1479" gradientUnits="userSpaceOnUse">
<stop stop-color="#757575"/>
<stop offset="0.1667" stop-color="#8F8F8F"/>
<stop offset="0.5547" stop-color="#C6C6C6"/>
<stop offset="0.844" stop-color="#E9E9E9"/>
<stop offset="1" stop-color="#F6F6F6"/>
</linearGradient>
<linearGradient id="paint2_linear" x1="10.1387" y1="27.3313" x2="28.0768" y2="10.2604" gradientUnits="userSpaceOnUse">
<stop stop-color="#757575"/>
<stop offset="0.2518" stop-color="#898989"/>
<stop offset="0.7303" stop-color="#A9A9A9"/>
<stop offset="0.9946" stop-color="#B5B5B5"/>
</linearGradient>
<linearGradient id="paint3_linear" x1="15.5958" y1="3.97832" x2="23.5096" y2="3.97832" gradientUnits="userSpaceOnUse">
<stop stop-color="#757575"/>
<stop offset="0.2518" stop-color="#898989"/>
<stop offset="0.7303" stop-color="#A9A9A9"/>
<stop offset="0.9946" stop-color="#B5B5B5"/>
</linearGradient>
<linearGradient id="paint4_linear" x1="13.1768" y1="22.5851" x2="37.9974" y2="6.18257" gradientUnits="userSpaceOnUse">
<stop stop-color="#757575"/>
<stop offset="0.2518" stop-color="#898989"/>
<stop offset="0.7303" stop-color="#A9A9A9"/>
<stop offset="0.9946" stop-color="#B5B5B5"/>
</linearGradient>
<linearGradient id="paint5_linear" x1="13.6532" y1="34.6721" x2="12.7855" y2="33.3822" gradientUnits="userSpaceOnUse">
<stop offset="0.2729" stop-color="#757575"/>
<stop offset="0.7803" stop-color="#B5B5B5"/>
</linearGradient>
</defs>
</svg>
